<svg width="45" height="38" viewBox="0 0 45 38" fill="none" xmlns="http://www.w3.org/2000/svg">
<path fill-rule="evenodd" clip-rule="evenodd" d="M19.2228 0C18.1182 0 17.2228 0.89543 17.2228 2V4.85353C15.4672 5.47403 13.8616 6.41208 12.4751 7.59865L10.0004 6.16987C9.04378 5.61758 7.8206 5.94533 7.26831 6.90192L4.26831 12.0981C3.71603 13.0547 4.04378 14.2778 5.00036 14.8301L7.47289 16.2576C7.30863 17.1467 7.22278 18.0633 7.22278 19C7.22278 19.9366 7.30863 20.8532 7.47289 21.7423L5.00033 23.1699C4.04375 23.7222 3.716 24.9453 4.26828 25.9019L7.26828 31.0981C7.82057 32.0547 9.04375 32.3824 10.0003 31.8301L12.4751 30.4013C13.8616 31.5879 15.4672 32.526 17.2228 33.1465V36C17.2228 37.1046 18.1182 38 19.2228 38H25.2228C26.3274 38 27.2228 37.1046 27.2228 36V33.1465C28.9784 32.526 30.5839 31.5879 31.9705 30.4013L34.4452 31.8301C35.4018 32.3824 36.625 32.0547 37.1773 31.0981L40.1773 25.9019C40.7296 24.9453 40.4018 23.7222 39.4452 23.1699L36.9727 21.7423C37.1369 20.8532 37.2228 19.9366 37.2228 19C37.2228 18.0634 37.1369 17.1468 36.9727 16.2576L39.4452 14.8301C40.4018 14.2778 40.7295 13.0547 40.1772 12.0981L37.1772 6.90193C36.625 5.94534 35.4018 5.61759 34.4452 6.16988L31.9705 7.59865C30.5839 6.41208 28.9784 5.47403 27.2228 4.85353V2C27.2228 0.895431 26.3274 0 25.2228 0H19.2228ZM22.2228 26C26.0888 26 29.2228 22.866 29.2228 19C29.2228 15.134 26.0888 12 22.2228 12C18.3568 12 15.2228 15.134 15.2228 19C15.2228 22.866 18.3568 26 22.2228 26Z" fill="white"/>
</svg>
