<svg width="37" height="38" viewBox="0 0 37 38" fill="none" xmlns="http://www.w3.org/2000/svg">
<path fill-rule="evenodd" clip-rule="evenodd" d="M33.9393 18.6464L33.5 18.2071V35.0858C33.5 36.4665 32.3807 37.5858 31 37.5858H23V27.5858C23 25.9289 21.6569 24.5858 20 24.5858H17C15.3431 24.5858 14 25.9289 14 27.5858V37.5858H6C4.61929 37.5858 3.5 36.4665 3.5 35.0858V18.2071L3.06066 18.6464C2.47488 19.2322 1.52513 19.2322 0.93934 18.6464C0.353553 18.0607 0.353553 17.1109 0.93934 16.5251L16.7322 0.732232C17.7085 -0.244078 19.2915 -0.244077 20.2678 0.732231L36.0607 16.5251C36.6464 17.1109 36.6464 18.0607 36.0607 18.6464C35.4749 19.2322 34.5251 19.2322 33.9393 18.6464Z" fill="#FFFFFF"/>
</svg>
