<svg width="45" height="38" viewBox="0 0 45 38" fill="none" xmlns="http://www.w3.org/2000/svg">
<path fill-rule="evenodd" clip-rule="evenodd" d="M4 8C6.20914 8 8 6.20914 8 4C8 1.79086 6.20914 0 4 0C1.79086 0 0 1.79086 0 4C0 6.20914 1.79086 8 4 8ZM17 0C14.7909 0 13 1.79086 13 4C13 6.20914 14.7909 8 17 8H41C43.2091 8 45 6.20914 45 4C45 1.79086 43.2091 0 41 0H17ZM17 30C14.7909 30 13 31.7909 13 34C13 36.2091 14.7909 38 17 38H41C43.2091 38 45 36.2091 45 34C45 31.7909 43.2091 30 41 30H17ZM13 19C13 16.7909 14.7909 15 17 15H41C43.2091 15 45 16.7909 45 19C45 21.2091 43.2091 23 41 23H17C14.7909 23 13 21.2091 13 19ZM8 19C8 21.2091 6.20914 23 4 23C1.79086 23 0 21.2091 0 19C0 16.7909 1.79086 15 4 15C6.20914 15 8 16.7909 8 19ZM4 38C6.20914 38 8 36.2091 8 34C8 31.7909 6.20914 30 4 30C1.79086 30 0 31.7909 0 34C0 36.2091 1.79086 38 4 38Z" fill="#DB75FF"/>
</svg>
