<svg width="45" height="38" viewBox="0 0 45 38" fill="none" xmlns="http://www.w3.org/2000/svg">
<path fill-rule="evenodd" clip-rule="evenodd" d="M10 0C7.79086 0 6 1.79086 6 4V34C6 36.2091 7.79086 38 10 38H35C37.2091 38 39 36.2091 39 34V4C39 1.79086 37.2091 0 35 0H10ZM11 6H15V10H11V6ZM11 32V28H15V32H11ZM18.5 8C18.5 7.17157 19.1716 6.5 20 6.5H33C33.8284 6.5 34.5 7.17157 34.5 8C34.5 8.82843 33.8284 9.5 33 9.5H20C19.1716 9.5 18.5 8.82843 18.5 8ZM18.5 30C18.5 29.1716 19.1716 28.5 20 28.5H33C33.8284 28.5 34.5 29.1716 34.5 30C34.5 30.8284 33.8284 31.5 33 31.5H20C19.1716 31.5 18.5 30.8284 18.5 30ZM18.5 19C18.5 18.1716 19.1716 17.5 20 17.5H33C33.8284 17.5 34.5 18.1716 34.5 19C34.5 19.8284 33.8284 20.5 33 20.5H20C19.1716 20.5 18.5 19.8284 18.5 19ZM17.2071 16.2929C17.5976 16.6834 17.5976 17.3166 17.2071 17.7071L13 21.9142L10.2929 19.2071C9.90237 18.8166 9.90237 18.1834 10.2929 17.7929C10.6834 17.4024 11.3166 17.4024 11.7071 17.7929L13 19.0858L15.7929 16.2929C16.1834 15.9024 16.8166 15.9024 17.2071 16.2929Z" fill="#D86BFF"/>
</svg>
