<svg width="203" height="100" viewBox="0 0 203 100" fill="none" xmlns="http://www.w3.org/2000/svg">
<path d="M77.9668 72.336H73.4128V84H72.1528V72.336H67.5988V71.22H77.9668V72.336ZM80.3361 84.18C79.8561 84.18 79.4181 84.108 79.0221 83.964C78.6261 83.808 78.2841 83.598 77.9961 83.334C77.7201 83.07 77.5041 82.764 77.3481 82.416C77.1921 82.068 77.1141 81.702 77.1141 81.318C77.1141 80.886 77.2101 80.496 77.4021 80.148C77.5941 79.788 77.8641 79.482 78.2121 79.23C78.5601 78.978 78.9741 78.786 79.4541 78.654C79.9461 78.51 80.4861 78.438 81.0741 78.438C81.5421 78.438 82.0221 78.48 82.5141 78.564C83.0061 78.648 83.4441 78.768 83.8281 78.924V78.078C83.8281 77.25 83.5881 76.596 83.1081 76.116C82.6401 75.624 82.0041 75.378 81.2001 75.378C80.6961 75.378 80.1921 75.474 79.6881 75.666C79.1961 75.858 78.6921 76.134 78.1761 76.494L77.7441 75.684C78.3561 75.276 78.9501 74.97 79.5261 74.766C80.1021 74.562 80.7021 74.46 81.3261 74.46C82.4661 74.46 83.3721 74.79 84.0441 75.45C84.7161 76.11 85.0521 77.022 85.0521 78.186V82.416C85.0521 82.752 85.1961 82.92 85.4841 82.92V84C85.3881 84.012 85.2981 84.018 85.2141 84.018C85.1301 84.03 85.0581 84.036 84.9981 84.036C84.7581 84.036 84.5361 83.964 84.3321 83.82C84.1401 83.676 84.0321 83.46 84.0081 83.172L83.9721 82.434C83.5641 82.986 83.0241 83.418 82.3521 83.73C81.6921 84.03 81.0201 84.18 80.3361 84.18ZM80.6421 83.244C81.1821 83.244 81.7161 83.13 82.2441 82.902C82.7841 82.662 83.2101 82.338 83.5221 81.93C83.6061 81.822 83.6781 81.708 83.7381 81.588C83.7981 81.456 83.8281 81.336 83.8281 81.228V79.698C83.4201 79.542 82.9941 79.422 82.5501 79.338C82.1061 79.254 81.6741 79.212 81.2541 79.212C80.3781 79.212 79.6641 79.392 79.1121 79.752C78.5721 80.1 78.3021 80.586 78.3021 81.21C78.3021 81.462 78.3501 81.708 78.4461 81.948C78.5421 82.188 78.6861 82.404 78.8781 82.596C79.0821 82.788 79.3281 82.944 79.6161 83.064C79.9041 83.184 80.2461 83.244 80.6421 83.244ZM90.8634 84.18C90.1314 84.18 89.4174 84.06 88.7214 83.82C88.0254 83.58 87.4254 83.232 86.9214 82.776L87.4794 81.948C88.0074 82.38 88.5414 82.704 89.0814 82.92C89.6334 83.136 90.2214 83.244 90.8454 83.244C91.6014 83.244 92.2014 83.094 92.6454 82.794C93.1014 82.482 93.3294 82.044 93.3294 81.48C93.3294 81.216 93.2694 81 93.1494 80.832C93.0294 80.652 92.8494 80.496 92.6094 80.364C92.3814 80.232 92.0874 80.118 91.7274 80.022C91.3794 79.914 90.9714 79.806 90.5034 79.698C89.9634 79.566 89.4954 79.434 89.0994 79.302C88.7034 79.17 88.3734 79.02 88.1094 78.852C87.8574 78.684 87.6654 78.48 87.5334 78.24C87.4134 77.988 87.3534 77.676 87.3534 77.304C87.3534 76.836 87.4434 76.422 87.6234 76.062C87.8154 75.702 88.0674 75.408 88.3794 75.18C88.7034 74.94 89.0754 74.76 89.4954 74.64C89.9274 74.52 90.3834 74.46 90.8634 74.46C91.5834 74.46 92.2374 74.58 92.8254 74.82C93.4134 75.048 93.8874 75.354 94.2474 75.738L93.6534 76.458C93.3054 76.098 92.8794 75.828 92.3754 75.648C91.8834 75.468 91.3674 75.378 90.8274 75.378C90.5034 75.378 90.2034 75.414 89.9274 75.486C89.6514 75.546 89.4054 75.648 89.1894 75.792C88.9854 75.936 88.8234 76.122 88.7034 76.35C88.5834 76.566 88.5234 76.824 88.5234 77.124C88.5234 77.376 88.5654 77.58 88.6494 77.736C88.7334 77.892 88.8714 78.03 89.0634 78.15C89.2554 78.258 89.4954 78.36 89.7834 78.456C90.0834 78.54 90.4434 78.63 90.8634 78.726C91.4634 78.87 91.9914 79.014 92.4474 79.158C92.9034 79.302 93.2814 79.47 93.5814 79.662C93.8934 79.854 94.1274 80.088 94.2834 80.364C94.4394 80.64 94.5174 80.976 94.5174 81.372C94.5174 82.236 94.1874 82.92 93.5274 83.424C92.8674 83.928 91.9794 84.18 90.8634 84.18ZM103.181 84L99.7249 79.194L97.7089 81.066V84H96.4849V70.86H97.7089V79.788L102.983 74.64H104.369L100.535 78.474L104.513 84H103.181ZM110.637 70.86H111.861V81.876C111.861 82.224 111.957 82.5 112.149 82.704C112.341 82.896 112.611 82.992 112.959 82.992C113.091 82.992 113.247 82.974 113.427 82.938C113.607 82.902 113.775 82.854 113.931 82.794L114.147 83.784C113.919 83.88 113.637 83.958 113.301 84.018C112.977 84.078 112.695 84.108 112.455 84.108C111.891 84.108 111.447 83.952 111.123 83.64C110.799 83.316 110.637 82.866 110.637 82.29V70.86ZM115.329 84V74.622H116.553V84H115.329ZM115.329 72.66V70.86H116.553V72.66H115.329ZM122.328 84.18C121.596 84.18 120.882 84.06 120.186 83.82C119.49 83.58 118.89 83.232 118.386 82.776L118.944 81.948C119.472 82.38 120.006 82.704 120.546 82.92C121.098 83.136 121.686 83.244 122.31 83.244C123.066 83.244 123.666 83.094 124.11 82.794C124.566 82.482 124.794 82.044 124.794 81.48C124.794 81.216 124.734 81 124.614 80.832C124.494 80.652 124.314 80.496 124.074 80.364C123.846 80.232 123.552 80.118 123.192 80.022C122.844 79.914 122.436 79.806 121.968 79.698C121.428 79.566 120.96 79.434 120.564 79.302C120.168 79.17 119.838 79.02 119.574 78.852C119.322 78.684 119.13 78.48 118.998 78.24C118.878 77.988 118.818 77.676 118.818 77.304C118.818 76.836 118.908 76.422 119.088 76.062C119.28 75.702 119.532 75.408 119.844 75.18C120.168 74.94 120.54 74.76 120.96 74.64C121.392 74.52 121.848 74.46 122.328 74.46C123.048 74.46 123.702 74.58 124.29 74.82C124.878 75.048 125.352 75.354 125.712 75.738L125.118 76.458C124.77 76.098 124.344 75.828 123.84 75.648C123.348 75.468 122.832 75.378 122.292 75.378C121.968 75.378 121.668 75.414 121.392 75.486C121.116 75.546 120.87 75.648 120.654 75.792C120.45 75.936 120.288 76.122 120.168 76.35C120.048 76.566 119.988 76.824 119.988 77.124C119.988 77.376 120.03 77.58 120.114 77.736C120.198 77.892 120.336 78.03 120.528 78.15C120.72 78.258 120.96 78.36 121.248 78.456C121.548 78.54 121.908 78.63 122.328 78.726C122.928 78.87 123.456 79.014 123.912 79.158C124.368 79.302 124.746 79.47 125.046 79.662C125.358 79.854 125.592 80.088 125.748 80.364C125.904 80.64 125.982 80.976 125.982 81.372C125.982 82.236 125.652 82.92 124.992 83.424C124.332 83.928 123.444 84.18 122.328 84.18ZM132.468 83.55C132.396 83.586 132.288 83.634 132.144 83.694C132.012 83.754 131.856 83.814 131.676 83.874C131.496 83.934 131.292 83.988 131.064 84.036C130.836 84.084 130.596 84.108 130.344 84.108C130.08 84.108 129.828 84.072 129.588 84C129.348 83.928 129.138 83.82 128.958 83.676C128.778 83.52 128.634 83.328 128.526 83.1C128.418 82.872 128.364 82.608 128.364 82.308V75.594H127.068V74.622H128.364V71.454H129.588V74.622H131.748V75.594H129.588V81.966C129.612 82.314 129.732 82.572 129.948 82.74C130.164 82.896 130.422 82.974 130.722 82.974C131.07 82.974 131.376 82.92 131.64 82.812C131.904 82.692 132.072 82.608 132.144 82.56L132.468 83.55ZM137.059 84.18C136.327 84.18 135.613 84.06 134.917 83.82C134.221 83.58 133.621 83.232 133.117 82.776L133.675 81.948C134.203 82.38 134.737 82.704 135.277 82.92C135.829 83.136 136.417 83.244 137.041 83.244C137.797 83.244 138.397 83.094 138.841 82.794C139.297 82.482 139.525 82.044 139.525 81.48C139.525 81.216 139.465 81 139.345 80.832C139.225 80.652 139.045 80.496 138.805 80.364C138.577 80.232 138.283 80.118 137.923 80.022C137.575 79.914 137.167 79.806 136.699 79.698C136.159 79.566 135.691 79.434 135.295 79.302C134.899 79.17 134.569 79.02 134.305 78.852C134.053 78.684 133.861 78.48 133.729 78.24C133.609 77.988 133.549 77.676 133.549 77.304C133.549 76.836 133.639 76.422 133.819 76.062C134.011 75.702 134.263 75.408 134.575 75.18C134.899 74.94 135.271 74.76 135.691 74.64C136.123 74.52 136.579 74.46 137.059 74.46C137.779 74.46 138.433 74.58 139.021 74.82C139.609 75.048 140.083 75.354 140.443 75.738L139.849 76.458C139.501 76.098 139.075 75.828 138.571 75.648C138.079 75.468 137.563 75.378 137.023 75.378C136.699 75.378 136.399 75.414 136.123 75.486C135.847 75.546 135.601 75.648 135.385 75.792C135.181 75.936 135.019 76.122 134.899 76.35C134.779 76.566 134.719 76.824 134.719 77.124C134.719 77.376 134.761 77.58 134.845 77.736C134.929 77.892 135.067 78.03 135.259 78.15C135.451 78.258 135.691 78.36 135.979 78.456C136.279 78.54 136.639 78.63 137.059 78.726C137.659 78.87 138.187 79.014 138.643 79.158C139.099 79.302 139.477 79.47 139.777 79.662C140.089 79.854 140.323 80.088 140.479 80.364C140.635 80.64 140.713 80.976 140.713 81.372C140.713 82.236 140.383 82.92 139.723 83.424C139.063 83.928 138.175 84.18 137.059 84.18ZM142.95 79.896V71.094H144.174V79.896H142.95ZM142.95 84V81.984H144.174V84H142.95Z" fill="#FFFFFF"/>
<path d="M49 81C47.5833 81 46.1562 80.6667 44.7188 80C43.2812 79.3542 41.7292 78.4271 40.0625 77.2188C38.5417 76.1562 37.0312 74.9896 35.5312 73.7188C32.0104 70.8021 28.7917 68.7396 25.875 67.5312C24.1875 66.8229 22.375 66.4688 20.4375 66.4688H19.7188C19.5938 66.4688 19.3438 66.4896 18.9688 66.5312L28.5 22.1875C25.625 23.375 23.4167 25.1458 21.875 27.5C20.3333 29.8333 19.5625 32.7083 19.5625 36.125C19.5625 37.4375 19.7083 38.5104 20 39.3438C20.0833 39.6146 20.1875 39.8542 20.3125 40.0625C20.3958 40.2083 20.4375 40.3542 20.4375 40.5C18.125 40.5 16.4375 40.0312 15.375 39.0938C14.1875 38.0938 13.5938 36.4896 13.5938 34.2812C13.5938 32.8854 13.8958 31.5104 14.5 30.1562C15.1042 28.7812 15.9583 27.4583 17.0625 26.1875C18.125 24.9583 19.375 23.8229 20.8125 22.7812C22.2708 21.7188 23.8333 20.8021 25.5 20.0312C29.0417 18.4271 32.5625 17.625 36.0625 17.625C36.8333 17.625 37.6875 17.6771 38.625 17.7812L28.7812 63.7188C29.8021 63.9479 30.8333 64.2917 31.875 64.75C32.9375 65.2083 34.1458 65.8021 35.5 66.5312L39 68.4062C41.7083 69.8854 44.1562 70.9062 46.3438 71.4688C47.5938 71.8021 48.9062 71.9688 50.2812 71.9688C52.2188 71.9688 54.0104 71.625 55.6562 70.9375C55.2812 74.0625 54.5208 76.5104 53.375 78.2812C52.8125 79.1562 52.1562 79.8229 51.4062 80.2812C50.6771 80.7604 49.875 81 49 81ZM52.75 21.5312C49.875 22.7188 47.6667 24.4896 46.125 26.8438C44.5833 29.1979 43.8125 32.0833 43.8125 35.5C43.8125 36.8333 43.9583 37.8958 44.25 38.6875C44.3333 38.9583 44.4375 39.1979 44.5625 39.4062C44.6458 39.5521 44.6875 39.6979 44.6875 39.8438C42.375 39.8438 40.6875 39.3854 39.625 38.4688C38.4375 37.4688 37.8438 35.8542 37.8438 33.625C37.8438 32.2292 38.1458 30.8542 38.75 29.5C39.3542 28.125 40.2083 26.8021 41.3125 25.5312C42.3542 24.3229 43.5938 23.1979 45.0312 22.1562C46.4896 21.0938 48.0625 20.1771 49.75 19.4062C53.2917 17.8021 56.8125 17 60.3125 17C61.2708 17 62.125 17.0417 62.875 17.125L52.6875 65H43.5L52.75 21.5312ZM77.125 66.1562C75.0833 66.1562 73.2396 65.8854 71.5938 65.3438C69.9479 64.8229 68.5312 64.0625 67.3438 63.0625C66.1354 62.0625 65.2083 60.875 64.5625 59.5C63.9375 58.125 63.625 56.6042 63.625 54.9375C63.625 53.5417 63.8438 52.2292 64.2812 51C64.7396 49.75 65.375 48.6667 66.1875 47.75C67 46.8333 67.9479 46.125 69.0312 45.625C70.1146 45.1042 71.2604 44.8438 72.4688 44.8438C73.9688 44.8438 75.2292 45.2188 76.25 45.9688C77.2708 46.7188 77.9062 47.75 78.1562 49.0625C75.9271 49.0625 74.1562 49.6562 72.8438 50.8438C72.2188 51.4062 71.7292 52.0938 71.375 52.9062C71.0417 53.7188 70.875 54.6146 70.875 55.5938C70.875 57.4688 71.4167 58.9583 72.5 60.0625C73.6042 61.1458 75.0833 61.6875 76.9375 61.6875C78.0417 61.6875 79.0729 61.4896 80.0312 61.0938C80.9896 60.6771 81.8229 60.1146 82.5312 59.4062C83.2396 58.6979 83.7812 57.8542 84.1562 56.875C84.5521 55.875 84.75 54.8125 84.75 53.6875C84.75 51.6042 84.0417 49.4375 82.625 47.1875C82.0625 46.3125 81.4375 45.4583 80.75 44.625C80.0833 43.7708 79.1458 42.6458 77.9375 41.25C76.8542 40 75.9479 38.9167 75.2188 38C74.4896 37.0833 73.8333 36.1458 73.25 35.1875C71.8333 32.875 71.125 30.6042 71.125 28.375C71.125 26.7083 71.4792 25.1667 72.1875 23.75C72.8958 22.3125 73.9062 21.0625 75.2188 20C76.5312 18.9375 78.0625 18.1146 79.8125 17.5312C81.5625 16.9479 83.4479 16.6562 85.4688 16.6562C88.9062 16.6562 91.6667 17.4688 93.75 19.0938C94.75 19.8854 95.5104 20.8333 96.0312 21.9375C96.5729 23.0417 96.8438 24.2708 96.8438 25.625C96.8438 27.3958 96.3958 28.8438 95.5 29.9688C95.0833 30.5104 94.5625 30.9271 93.9375 31.2188C93.3333 31.5104 92.6875 31.6562 92 31.6562C90.3958 31.6562 89.0938 30.9896 88.0938 29.6562C88.9062 29.0729 89.5417 28.3021 90 27.3438C90.4792 26.3646 90.7188 25.3229 90.7188 24.2188C90.7188 22.8438 90.3125 21.7604 89.5 20.9688C88.6875 20.1562 87.5729 19.75 86.1562 19.75C85.3021 19.75 84.5104 19.9062 83.7812 20.2188C83.0729 20.5312 82.4688 20.9792 81.9688 21.5625C81.4479 22.1458 81.0417 22.8333 80.75 23.625C80.4792 24.4167 80.3438 25.2812 80.3438 26.2188C80.3438 27.5521 80.6562 28.8333 81.2812 30.0625C81.9062 31.2917 82.8021 32.5729 83.9688 33.9062C85.0104 35.1354 86.1354 36.3542 87.3438 37.5625C90.1562 40.4792 92.1458 43.3229 93.3125 46.0938C94 47.7396 94.3438 49.5521 94.3438 51.5312C94.3438 53.6146 93.9167 55.5521 93.0625 57.3438C92.2083 59.1146 90.9896 60.6562 89.4062 61.9688C87.8229 63.3021 85.9792 64.3333 83.875 65.0625C81.7708 65.7917 79.5208 66.1562 77.125 66.1562ZM117.094 22.625H116.344C112.552 22.625 109.698 23.4896 107.781 25.2188C105.469 27.3021 104.312 30.75 104.312 35.5625C104.312 36.8958 104.458 37.9583 104.75 38.75C104.833 39.0208 104.938 39.2604 105.062 39.4688C105.146 39.6146 105.188 39.7604 105.188 39.9062C102.875 39.9062 101.188 39.4479 100.125 38.5312C98.9375 37.5312 98.3438 35.9271 98.3438 33.7188C98.3438 31.5104 98.75 29.4167 99.5625 27.4375C100.396 25.4375 101.656 23.6875 103.344 22.1875C105.156 20.5625 107.458 19.3021 110.25 18.4062C113.062 17.5104 116.375 17.0625 120.188 17.0625C122.375 17.0625 124.469 17.1875 126.469 17.4375C127.094 17.5 127.906 17.6146 128.906 17.7812C130.573 18.0938 132.177 18.3021 133.719 18.4062C134.469 18.4896 135.417 18.5312 136.562 18.5312C137.979 18.5312 139.333 18.4062 140.625 18.1562C141.917 17.9062 143.042 17.5833 144 17.1875C143.896 19.9792 143.177 22.0312 141.844 23.3438C140.531 24.6562 138.583 25.3125 136 25.3125C134.604 25.3125 133.198 25.1979 131.781 24.9688C130.365 24.7396 128.458 24.3854 126.062 23.9062L117.219 65H108.031L117.094 22.625ZM144.062 21.5312C141.188 22.7188 138.979 24.4896 137.438 26.8438C135.896 29.1979 135.125 32.0833 135.125 35.5C135.125 36.8333 135.271 37.8958 135.562 38.6875C135.646 38.9583 135.75 39.1979 135.875 39.4062C135.958 39.5521 136 39.6979 136 39.8438C133.688 39.8438 132 39.3854 130.938 38.4688C129.75 37.4688 129.156 35.8542 129.156 33.625C129.156 32.2292 129.458 30.8542 130.062 29.5C130.667 28.125 131.521 26.8021 132.625 25.5312C133.667 24.3229 134.906 23.1979 136.344 22.1562C137.802 21.0938 139.375 20.1771 141.062 19.4062C144.604 17.8021 148.125 17 151.625 17C152.583 17 153.438 17.0417 154.188 17.125L144 65H134.812L144.062 21.5312ZM167.562 78.25C166.021 78.25 164.615 78.0417 163.344 77.625C162.073 77.2083 160.979 76.6146 160.062 75.8438C159.146 75.0729 158.438 74.1458 157.938 73.0625C157.438 71.9792 157.188 70.8021 157.188 69.5312C157.188 68.3021 157.406 67.1458 157.844 66.0625C158.281 65 158.896 64.0521 159.688 63.2188C160.458 62.4062 161.375 61.7812 162.438 61.3438C163.5 60.8854 164.625 60.6562 165.812 60.6562C167.458 60.6562 168.771 61.0521 169.75 61.8438C170.75 62.6354 171.25 63.7083 171.25 65.0625C171.25 66.0833 171.021 66.8958 170.562 67.5C170.167 66.9792 169.635 66.5729 168.969 66.2812C168.323 65.9896 167.635 65.8438 166.906 65.8438C165.594 65.8438 164.552 66.2604 163.781 67.0938C162.969 67.9479 162.562 69.0625 162.562 70.4375C162.562 71.7917 162.958 72.8958 163.75 73.75C164.521 74.625 165.51 75.0625 166.719 75.0625C168.198 75.0625 169.469 74.3958 170.531 73.0625C171.594 71.75 172.417 69.7917 173 67.1875L176.188 53.0312H175.938C174.75 54.6562 173.333 55.8958 171.688 56.75C170.062 57.6042 168.281 58.0312 166.344 58.0312C164.469 58.0312 162.771 57.6562 161.25 56.9062C159.729 56.1354 158.427 55.0417 157.344 53.625C156.26 52.2083 155.427 50.5 154.844 48.5C154.26 46.5 153.969 44.2812 153.969 41.8438C153.969 39.4896 154.229 37.2292 154.75 35.0625C155.292 32.875 156.073 30.8333 157.094 28.9375C159.135 25.1042 161.917 22.1042 165.438 19.9375C169.062 17.6875 173.031 16.5625 177.344 16.5625C179.135 16.5625 180.76 16.7708 182.219 17.1875C183.698 17.5833 184.948 18.1562 185.969 18.9062C186.99 19.6771 187.771 20.6146 188.312 21.7188C188.854 22.8021 189.125 24.0208 189.125 25.375C189.125 27.1875 188.677 28.6562 187.781 29.7812C187.344 30.3229 186.812 30.7396 186.188 31.0312C185.583 31.3229 184.938 31.4688 184.25 31.4688C183.458 31.4688 182.708 31.3021 182 30.9688C181.292 30.6146 180.698 30.1146 180.219 29.4688C180.969 28.9688 181.615 28.1458 182.156 27C182.698 25.8542 182.969 24.7188 182.969 23.5938C182.969 22.3021 182.594 21.3125 181.844 20.625C181.115 19.9167 180.062 19.5625 178.688 19.5625C177.438 19.5625 176.198 19.8542 174.969 20.4375C173.76 21.0208 172.594 21.8438 171.469 22.9062C170.365 23.9479 169.344 25.1979 168.406 26.6562C167.469 28.0938 166.667 29.6562 166 31.3438C164.562 34.9062 163.844 38.6562 163.844 42.5938C163.844 45.8229 164.344 48.2812 165.344 49.9688C166.365 51.6354 167.844 52.4688 169.781 52.4688C172.115 52.4688 174.146 51.2708 175.875 48.875C177.625 46.4583 179.052 42.8958 180.156 38.1875L187.719 38.25L183.031 59.75C181.656 66.0833 179.729 70.7604 177.25 73.7812C174.771 76.7604 171.542 78.25 167.562 78.25Z" fill="#FFFFFF"/>
</svg>
